HIERARCHY
ROOT Hips
{
	OFFSET 0.000000 0.000000 0.000000
	CHANNELS 6 Xposition Yposition Zposition Xrotation Yrotation Zrotation
	JOINT LeftUpLeg_virtual
	{
		OFFSET 0.000000 0.000000 0.000000
		CHANNELS 3 Xrotation Yrotation Zrotation
		JOINT LeftUpLeg
		{
			OFFSET 10.205400 -3.823500 0.155100
			CHANNELS 3 Xrotation Yrotation Zrotation
			JOINT LeftLeg
			{
				OFFSET 0.708757 -12.982077 0.567790
				CHANNELS 3 Xrotation Yrotation Zrotation
				JOINT LeftFoot
				{
					OFFSET -0.708756 -10.717838 -2.184338
					CHANNELS 3 Xrotation Yrotation Zrotation
					JOINT LeftToeBase
					{
						OFFSET 0.108149 -7.191104 7.560241
						CHANNELS 3 Xrotation Yrotation Zrotation
						JOINT LeftToe_End
						{
							OFFSET 0.070230 0.081724 4.490308
							CHANNELS 3 Xrotation Yrotation Zrotation
							End Site
							{
								OFFSET 0 0 0
							}
						}
					}
				}
			}
		}
	}
	JOINT RightUpLeg_virtual
	{
		OFFSET 0.000000 0.000000 0.000000
		CHANNELS 3 Xrotation Yrotation Zrotation
		JOINT RightUpLeg
		{
			OFFSET -10.205400 -3.823500 0.005500
			CHANNELS 3 Xrotation Yrotation Zrotation
			JOINT RightLeg
			{
				OFFSET -0.708756 -12.982134 0.610632
				CHANNELS 3 Xrotation Yrotation Zrotation
				JOINT RightFoot
				{
					OFFSET 0.708754 -10.717769 -1.945823
					CHANNELS 3 Xrotation Yrotation Zrotation
					JOINT RightToeBase
					{
						OFFSET -0.108140 -7.191069 7.372968
						CHANNELS 3 Xrotation Yrotation Zrotation
						JOINT RightToe_End
						{
							OFFSET -0.070227 0.081735 4.479403
							CHANNELS 3 Xrotation Yrotation Zrotation
							End Site
							{
								OFFSET 0 0 0
							}
						}
					}
				}
			}
		}
	}
	JOINT Spine_virtual
	{
		OFFSET 0.000000 0.000000 0.000000
		CHANNELS 3 Xrotation Yrotation Zrotation
		JOINT Spine
		{
			OFFSET 0.000000 6.876099 0.125700
			CHANNELS 3 Xrotation Yrotation Zrotation
			JOINT Spine1
			{
				OFFSET 0.000000 5.730043 0.104720
				CHANNELS 3 Xrotation Yrotation Zrotation
				JOINT Spine1_split
				{
					OFFSET 0.000000 5.730043 0.104720
					CHANNELS 3 Xrotation Yrotation Zrotation
					JOINT Spine2
					{
						OFFSET 0.000000 5.730043 0.104720
						CHANNELS 3 Xrotation Yrotation Zrotation
						JOINT Neck_virtual
						{
							OFFSET 0.000000 0.000000 0.000000
							CHANNELS 3 Xrotation Yrotation Zrotation
							JOINT Neck
							{
								OFFSET 0.000000 10.314075 0.188496
								CHANNELS 3 Xrotation Yrotation Zrotation
								JOINT Head
								{
									OFFSET 0.000000 7.643700 -2.377400
									CHANNELS 3 Xrotation Yrotation Zrotation
									JOINT HeadTop_End
									{
										OFFSET 0.000000 43.788605 -13.619600
										CHANNELS 3 Xrotation Yrotation Zrotation
										End Site
										{
											OFFSET 0 0 0
										}
									}
								}
							}
						}
						JOINT LeftShoulder_virtual
						{
							OFFSET 0.000000 0.000000 0.000000
							CHANNELS 3 Xrotation Yrotation Zrotation
							JOINT LeftShoulder
							{
								OFFSET 2.196100 4.412489 0.087492
								CHANNELS 3 Xrotation Yrotation Zrotation
								JOINT LeftShoulder_split
								{
									OFFSET 2.196100 4.412489 0.087492
									CHANNELS 3 Xrotation Yrotation Zrotation
									JOINT LeftArm
									{
										OFFSET 8.771219 -2.981674 -0.026999
										CHANNELS 3 Xrotation Yrotation Zrotation
										JOINT LeftForeArm
										{
											OFFSET 8.512804 0.000000 -0.000000
											CHANNELS 3 Xrotation Yrotation Zrotation
											JOINT LeftHand
											{
												OFFSET 18.484802 0.000000 -0.000000
												CHANNELS 3 Xrotation Yrotation Zrotation
												End Site
												{
													OFFSET 0 0 0
												}
											}
										}
									}
								}
							}
						}
						JOINT RightShoulder_virtual
						{
							OFFSET 0.000000 0.000000 0.000000
							CHANNELS 3 Xrotation Yrotation Zrotation
							JOINT RightShoulder
							{
								OFFSET -2.196100 4.412496 0.070690
								CHANNELS 3 Xrotation Yrotation Zrotation
								JOINT RightShoulder_split
								{
									OFFSET -2.196100 4.412496 0.070690
									CHANNELS 3 Xrotation Yrotation Zrotation
									JOINT RightArm
									{
										OFFSET -8.771282 -2.981682 -0.094208
										CHANNELS 3 Xrotation Yrotation Zrotation
										JOINT RightForeArm
										{
											OFFSET -8.494598 0.000000 0.000000
											CHANNELS 3 Xrotation Yrotation Zrotation
											JOINT RightHand
											{
												OFFSET -18.483803 0.000000 0.000001
												CHANNELS 3 Xrotation Yrotation Zrotation
												End Site
												{
													OFFSET 0 0 0
												}
											}
										}
									}
								}
							}
						}
					}
				}
			}
		}
	}
}
MOTION
Frames: 9
Frame Time: 0.03333333
0.486243 66.013161 -7.407732 0.000000 0.000000 0.000000 1.881302 -5.996491 1.156580 -88.155339 9.112168 24.925696 96.846584 -0.880909 5.378686 -8.275300 5.697278 -25.170273 0.734822 -2.262318 12.643790 0.000000 0.000000 0.000000 5.239379 -11.551091 0.623781 -102.078666 20.979336 -13.534615 116.281225 -2.883066 2.120328 14.834360 -10.856406 34.237717 -0.509906 12.953876 11.929717 0.000000 0.000000 0.000000 7.222491 -14.235019 0.296513 5.877919 -2.987049 -0.060947 10.650498 -1.304724 -0.599647 1.305789 -1.800765 2.569347 0.000000 0.000000 0.000000 13.556285 -1.369287 -0.414235 -22.158131 0.475425 -1.796671 0.222882 -4.155928 1.565029 0.000000 0.000000 0.000000 13.077872 -1.310534 -0.798549 0.716272 -12.901064 27.867153 -0.171304 7.633532 -8.343126 -59.501876 -22.151251 -12.266415 29.026993 -70.349849 53.629911 0.000000 0.000000 0.000000 12.399058 -1.022866 -0.482603 2.978727 10.131109 -6.364492 8.161176 10.931538 0.821783 -75.148808 35.798456 22.865808 -13.433655 75.456515 -26.857171 0.000000 0.000000 0.000000 
0.768819 66.145607 -7.839388 0.000000 0.000000 0.000000 0.392063 -7.240283 1.189921 -91.531932 5.272805 22.754900 96.131306 -3.053172 2.433525 -8.215660 8.385365 -24.365723 2.888726 -3.074510 12.105771 0.000000 0.000000 0.000000 3.837656 -11.498622 0.991868 -104.326966 16.048522 -14.157284 110.925004 0.236752 -0.377694 15.982472 -8.273868 36.895651 -3.629889 9.954207 7.246668 0.000000 0.000000 0.000000 6.497486 -14.888810 -0.085905 6.636217 -2.816607 0.362937 13.776040 -0.942689 -0.631384 1.573417 -1.555787 2.620150 0.000000 0.000000 0.000000 16.465721 -0.841235 -0.604021 -23.522733 1.786793 -1.609519 2.782505 -4.842036 3.545712 0.000000 0.000000 0.000000 16.036046 -0.883994 -1.170833 2.275611 -15.736696 30.468975 -0.811248 4.572856 -7.638666 -59.417673 -17.988495 -9.711972 15.540444 -65.359999 45.545358 0.000000 0.000000 0.000000 15.373065 -0.427198 -0.648424 3.617904 10.848576 -8.207364 9.727923 11.181730 -0.605914 -83.511828 36.772171 26.425394 -31.853847 76.141829 -10.189269 0.000000 0.000000 0.000000 
0.938332 66.579872 -8.086271 0.000000 0.000000 0.000000 -0.538042 -7.456437 1.566741 -92.317499 2.804485 19.070996 88.605729 -4.977467 0.578628 -7.509508 10.334834 -21.332170 4.312694 -3.758288 10.504851 0.000000 0.000000 0.000000 3.190229 -10.518645 1.685069 -103.409658 9.624933 -14.769453 100.504704 2.772698 -2.352788 16.245144 -5.001008 35.874278 -5.981258 8.879362 3.343299 0.000000 0.000000 0.000000 5.976124 -14.868360 -0.251760 6.610087 -2.241371 0.791179 16.706636 -0.457796 -0.742105 1.718971 -2.006948 2.512043 0.000000 0.000000 0.000000 19.189760 -0.169911 -0.831809 -23.737057 3.063070 -1.745088 6.220261 -5.707463 5.516177 0.000000 0.000000 0.000000 18.845059 -0.416980 -1.468929 3.608149 -17.665753 32.070682 -1.954537 1.305222 -6.001341 -62.842091 -15.560783 -8.100557 6.205364 -59.259493 41.215527 0.000000 0.000000 0.000000 18.039788 0.261325 -0.746510 4.629982 12.315813 -10.536185 10.993858 11.414790 -1.804286 -89.627129 38.694664 27.133799 -39.726702 71.241892 -3.613269 0.000000 0.000000 0.000000 
0.984336 67.180199 -8.168335 0.000000 0.000000 0.000000 -1.248737 -6.299066 2.161337 -90.735942 2.148979 14.572473 75.351064 -6.755062 -0.511930 -6.688822 11.474743 -16.269570 4.202759 -4.335237 8.105589 0.000000 0.000000 0.000000 2.306067 -9.932118 2.403629 -100.312932 2.300259 -15.262821 84.888733 4.040350 -2.902346 16.602131 -2.541409 30.551358 -7.071942 9.438155 1.404717 0.000000 0.000000 0.000000 5.389993 -14.413670 -0.158624 6.147560 -1.519241 1.169706 19.183638 0.027213 -0.874748 1.131467 -1.840214 1.897143 0.000000 0.000000 0.000000 21.389904 0.504490 -1.041687 -22.737618 4.348107 -2.287618 10.034759 -6.597194 7.151880 0.000000 0.000000 0.000000 21.227750 0.038238 -1.665727 4.474121 -18.374587 32.887265 -2.756139 -1.623324 -3.887769 -68.014389 -15.217498 -6.554411 -1.773626 -52.020032 37.739070 0.000000 0.000000 0.000000 20.139183 0.858456 -0.739178 6.155066 14.001453 -13.746796 11.370443 10.913322 -2.456374 -91.137789 41.236618 23.795810 -39.433752 62.727720 -4.851338 0.000000 0.000000 0.000000 
0.879777 67.527534 -8.167753 0.000000 0.000000 0.000000 -2.362677 -4.628253 2.909419 -87.590988 3.536494 10.471211 60.174759 -7.993359 -1.135251 -7.400883 12.038539 -7.969624 2.396943 -4.814838 5.056211 0.000000 0.000000 0.000000 0.977812 -8.825721 2.978945 -96.085052 -4.700405 -15.607551 67.945991 4.769139 -2.918905 17.448512 -0.545382 23.665478 -10.039926 10.829686 1.791139 0.000000 0.000000 0.000000 3.995734 -13.563753 0.257436 5.719664 -0.823654 1.340753 20.987766 0.458120 -0.952674 0.525932 -1.591528 1.042334 0.000000 0.000000 0.000000 22.785943 1.057669 -1.167863 -20.704624 5.394065 -3.247362 13.689698 -7.328865 8.267363 0.000000 0.000000 0.000000 23.017848 0.406063 -1.700362 4.899200 -17.858380 33.385975 -2.676478 -3.111748 -2.193496 -73.086152 -16.992688 -5.426683 -9.969272 -43.616731 33.386583 0.000000 0.000000 0.000000 21.533471 1.262040 -0.649461 8.197381 15.578581 -17.737110 11.016550 9.658700 -2.337996 -87.497544 42.409126 16.238112 -38.467154 53.937492 -6.377002 0.000000 0.000000 0.000000 
0.659832 67.243408 -7.964531 0.000000 0.000000 0.000000 -4.314898 -3.387395 3.662954 -84.099518 6.371891 7.623127 48.079317 -9.336879 -0.969279 -9.473117 11.321451 2.088305 -2.182863 -5.040817 2.066317 0.000000 0.000000 0.000000 -1.104086 -7.361981 3.371135 -91.922940 -10.380827 -16.152597 56.205873 5.433633 -2.966652 18.910676 1.237095 17.276940 -17.284321 12.215553 4.156515 0.000000 0.000000 0.000000 1.595721 -12.814501 0.908503 5.820176 -0.353369 1.187238 22.018877 0.780343 -0.933116 0.230341 -1.209076 0.507685 0.000000 0.000000 0.000000 23.440357 1.381675 -1.176001 -17.988835 6.064280 -4.351484 16.663601 -7.922324 8.844514 0.000000 0.000000 0.000000 24.095990 0.630058 -1.587161 4.895322 -16.456246 33.558198 -2.013452 -3.397827 -1.420367 -75.808167 -19.241244 -4.438438 -17.981977 -35.731165 28.101043 0.000000 0.000000 0.000000 22.206224 1.420067 -0.457886 10.536804 16.531372 -22.574146 9.996680 8.571945 -1.473420 -80.470181 39.746268 6.491537 -38.765613 48.674059 -5.843152 0.000000 0.000000 0.000000 
0.329901 66.220749 -7.503765 0.000000 0.000000 0.000000 -7.307771 -2.797478 4.218095 -81.537828 10.511516 6.953783 42.672467 -11.216747 -0.308148 -12.454815 8.678480 11.935709 -9.126140 -4.951721 -0.206988 0.000000 0.000000 0.000000 -4.062598 -5.818924 3.576420 -89.460418 -14.189325 -17.318395 54.046870 6.166716 -3.447621 19.461048 2.349773 12.463059 -27.380126 12.648113 7.639746 0.000000 0.000000 0.000000 -1.940319 -12.518875 1.444997 6.535629 -0.165242 0.735471 22.307058 0.981450 -0.798348 0.276483 -0.838852 0.273775 0.000000 0.000000 0.000000 23.450027 1.525398 -1.104600 -15.016123 6.316716 -5.312589 18.571505 -8.221721 8.904144 0.000000 0.000000 0.000000 24.474024 0.740664 -1.376659 4.744148 -14.852093 33.858450 -0.782210 -2.653739 -1.298518 -75.699970 -21.106441 -3.347535 -25.657015 -29.104754 21.805901 0.000000 0.000000 0.000000 22.303870 1.404431 -0.255970 12.844126 16.612065 -28.091427 8.779432 7.825329 -0.279796 -73.702543 33.204080 -2.338214 -40.699188 47.566131 -2.910883 0.000000 0.000000 0.000000 
-0.034897 64.595398 -6.782692 0.000000 0.000000 0.000000 -11.064822 -2.812910 4.482847 -80.692702 15.367775 8.794068 44.977598 -13.464423 0.810249 -15.552020 4.571980 20.081330 -17.120258 -4.677159 -1.345209 0.000000 0.000000 0.000000 -7.674595 -3.686888 3.561397 -89.309047 -16.528476 -19.198977 61.217756 6.813980 -4.515929 17.243610 2.883316 8.675728 -36.124215 12.209571 10.993499 0.000000 0.000000 0.000000 -6.036630 -12.564099 1.698970 7.700287 -0.175980 0.208228 21.985718 1.104960 -0.575722 0.672598 -0.959287 0.282472 0.000000 0.000000 0.000000 23.115734 1.523925 -1.006693 -12.212148 6.047582 -5.734424 19.219401 -8.221782 8.567928 0.000000 0.000000 0.000000 24.309707 0.748729 -1.084674 4.703380 -13.628453 34.552332 0.823630 -1.433775 -1.516298 -73.392029 -21.929733 -2.013354 -32.197409 -23.956931 15.004121 0.000000 0.000000 0.000000 21.989733 1.304277 -0.084465 14.804485 16.048858 -33.850257 8.043355 7.877681 0.761908 -69.868587 24.414187 -8.050060 -43.714440 48.270391 1.452585 0.000000 0.000000 0.000000 
-0.359818 62.726494 -5.688745 0.000000 0.000000 0.000000 -15.083262 -2.834821 4.244395 -82.031617 19.808252 12.584292 53.517715 -15.900283 2.225454 -18.285214 0.057236 25.130484 -23.979978 -4.480636 -1.152177 0.000000 0.000000 0.000000 -11.544281 -1.861965 3.284366 -91.319820 -17.841619 -21.412530 74.452136 6.564744 -5.756120 12.136467 2.699954 4.849135 -40.943986 11.698899 13.524068 0.000000 0.000000 0.000000 -10.089730 -12.895439 1.454357 8.968765 -0.263234 -0.122546 21.316399 1.190143 -0.330876 0.914328 -1.390870 0.487026 0.000000 0.000000 0.000000 22.782711 1.473677 -0.967506 -9.908374 5.465597 -5.524287 18.417991 -7.784070 7.892430 0.000000 0.000000 0.000000 23.840832 0.746352 -0.803132 4.880266 -13.039792 35.652764 2.545762 -0.133173 -1.848834 -69.771605 -21.418403 -0.577175 -36.832283 -20.885277 8.560068 0.000000 0.000000 0.000000 21.502865 1.208951 0.027116 16.190374 15.052791 -39.432550 7.872678 8.421002 1.631664 -68.327922 16.529947 -10.854875 -46.189072 47.862711 5.245042 0.000000 0.000000 0.000000 
